<?xml version="1.0" encoding="UTF-8" standalone="no"?>
<svg width="319px" height="192px" viewBox="0 0 319 192" version="1.1" xmlns="http://www.w3.org/2000/svg" xmlns:xlink="http://www.w3.org/1999/xlink" xmlns:sketch="http://www.bohemiancoding.com/sketch/ns">
    <!-- Generator: Sketch 3.3.2 (12043) - http://www.bohemiancoding.com/sketch -->
    <title>Slice 1</title>
    <desc>Created with Sketch.</desc>
    <defs></defs>
    <g id="Page-1" stroke="none" stroke-width="1" fill="none" fill-rule="evenodd" sketch:type="MSPage">
        <g id="Imported-Layers" sketch:type="MSLayerGroup">
            <path d="M266.198615,0.275677612 C265.977151,0.275677612 265.766014,0.401767164 265.668478,0.616119403 L229.256005,80.0857791 L231.526872,74.0885015 C231.552691,74.0197254 231.565313,73.9480836 231.565313,73.8798806 L231.534905,73.7847403 L242.686135,43.9651343 C242.710806,43.8969313 242.724002,43.8293015 242.724002,43.7605254 C242.724002,43.5232478 242.577124,43.3002985 242.340743,43.212609 C242.273615,43.187391 242.204192,43.1753552 242.136491,43.1753552 C241.899536,43.1753552 241.675777,43.3203582 241.587421,43.5547701 L224.485923,89.2954746 L235.398477,32.7832836 L235.409951,32.6738149 C235.409951,32.3981373 235.216027,32.153409 234.934894,32.0983881 C234.897027,32.0909373 234.85916,32.0874985 234.821867,32.0874985 C234.548766,32.0874985 234.303205,32.2829373 234.249847,32.5620537 L224.776236,81.6183403 L233.457511,3.45370746 L233.460953,3.38779701 C233.460953,3.09320597 233.240063,2.83930746 232.939996,2.80778507 C232.918194,2.80549254 232.896392,2.80434627 232.87459,2.80434627 C232.584277,2.80434627 232.327815,3.02557612 232.29339,3.32532537 L226.946124,51.4737672 L227.464786,45.3532657 L227.467081,45.3039761 C227.468228,45.0042269 227.235863,44.7468896 226.931207,44.7199522 C226.913421,44.7182328 226.895635,44.7176597 226.877849,44.7176597 C226.576061,44.7176597 226.323615,44.9509254 226.298371,45.2546866 L223.441714,78.980203 L223.413601,78.9945313 L224.169218,26.1383642 L224.169218,26.1286209 C224.170939,25.8105313 223.912755,25.548609 223.592034,25.5440239 C223.267871,25.5526209 223.00395,25.7973493 222.998786,26.120597 L222.613806,53.0074746 L222.019984,7.00140896 C222.016541,6.67816119 221.762374,6.42426269 221.426736,6.42426269 C221.106588,6.42712836 220.850126,6.68905075 220.850126,7.00771343 L220.850126,7.01631045 L221.571318,62.9221254 C221.473782,62.8527761 221.355592,62.8109373 221.225353,62.8109373 C221.216746,62.8109373 221.208714,62.8109373 221.200682,62.8115104 C220.886845,62.8235463 220.640137,63.0820299 220.638989,63.3932418 L221.194944,76.7312239 L220.512766,70.0805731 C220.496128,69.9264 220.41982,69.794006 220.311957,69.6988657 L216.631982,35.8214687 C216.598705,35.5222925 216.348554,35.2993433 216.053077,35.2993433 C216.030701,35.2993433 216.008326,35.3004896 215.985376,35.3033552 C215.685309,35.3360239 215.464419,35.5893493 215.464419,35.8839403 L215.466714,35.9481313 L221.287317,89.5333254 L199.808174,16.1211224 C199.733588,15.8660776 199.499502,15.7004418 199.246482,15.7004418 C199.19255,15.7004418 199.137471,15.7084657 199.082392,15.7239403 C198.82593,15.8001672 198.658971,16.0311403 198.660119,16.2856119 C198.662414,16.3394866 198.667577,16.3945075 198.683642,16.4501015 L207.100423,45.2168597 L196.026647,10.2487881 C195.949192,9.99775522 195.719696,9.83899701 195.47184,9.83899701 C195.412171,9.83899701 195.351354,9.84816716 195.291685,9.86765373 C195.041534,9.9456 194.883755,10.1748537 194.883755,10.4247403 C194.883755,10.4814806 194.894083,10.5410866 194.909574,10.6001194 L214.919939,73.7904716 L207.668426,54.3159403 C207.580644,54.0815284 207.357459,53.9353791 207.119356,53.9353791 C207.051655,53.9353791 206.982232,53.9474149 206.914531,53.9726328 C206.679297,54.0597493 206.534714,54.2826985 206.534714,54.5211224 C206.534714,54.5870328 206.545615,54.6581015 206.570286,54.7245851 L219.117428,88.418006 L208.884183,69.5057194 C208.777468,69.3102806 208.575511,69.1985194 208.367243,69.1985194 C208.273723,69.1985194 208.179056,69.2214448 208.090126,69.2690149 C207.893906,69.3744716 207.784896,69.5762149 207.784896,69.7831164 C207.783174,69.8759642 207.80555,69.9728239 207.852597,70.0616597 L216.888444,86.7559164 L181.045696,34.7669015 C180.933243,34.6029851 180.750793,34.5147224 180.564327,34.5147224 C180.449579,34.5147224 180.333683,34.5479642 180.232131,34.6178866 C180.067468,34.7302209 179.976817,34.9147701 179.976817,35.0998925 C179.976817,35.2145194 180.00952,35.3291463 180.080664,35.4323104 L198.95789,62.813803 C198.895926,62.7920239 198.829946,62.7811343 198.763966,62.7811343 C198.645201,62.7811343 198.52529,62.8172418 198.421442,62.8934687 C198.26309,63.0069493 198.17875,63.1846209 198.17875,63.3657313 C198.17875,63.4855164 198.217191,63.6064478 198.293498,63.7096119 L203.699286,71.1299821 L172.712682,31.7860299 C172.595638,31.6393075 172.423516,31.5625075 172.250246,31.5625075 C172.124023,31.5625075 171.997227,31.6032 171.891085,31.6874507 C171.742486,31.8026507 171.665604,31.9740179 171.665604,32.1476776 C171.665604,32.2737672 171.708061,32.4015761 171.792975,32.5104716 L199.947594,68.2568597 L187.263327,53.192597 C187.146858,53.0556179 186.981621,52.9851224 186.814662,52.9851224 C186.681554,52.9851224 186.547872,53.0298269 186.436567,53.1215284 C186.300016,53.2361552 186.228872,53.4029373 186.228872,53.5691463 C186.228872,53.7026866 186.274198,53.8362269 186.364849,53.9445493 L194.405255,63.4929672 L176.01743,42.8228776 C175.901534,42.692203 175.740887,42.6251463 175.579665,42.6251463 C175.441394,42.6251463 175.302549,42.6744358 175.190095,42.7741612 C175.059282,42.8882149 174.993876,43.0492657 174.993876,43.2108896 C174.993876,43.3490149 175.043218,43.4877134 175.141327,43.6000478 L204.526047,76.6314985 L204.38089,76.7323701 C204.259257,76.8464239 204.196146,77.0017433 204.196146,77.1587821 C204.196146,77.3020657 204.249504,77.4464955 204.357367,77.559403 L208.873856,82.3536716 L207.913987,81.4532776 C207.800387,81.3466746 207.655804,81.2939463 207.511795,81.2939463 C207.356885,81.2939463 207.202549,81.3552716 207.0878,81.4773493 C206.979937,81.5896836 206.927727,81.7346866 206.927727,81.8791164 C206.927727,82.035009 206.990264,82.1880358 207.11075,82.303809 L216.504038,91.1369552 L160.167835,52.177003 C160.065135,52.1065075 159.948665,52.0726925 159.83277,52.0726925 C159.647451,52.0726925 159.465002,52.1603821 159.351401,52.3242985 C159.282552,52.4268896 159.247554,52.5420896 159.247554,52.6584358 C159.247554,52.8435582 159.335336,53.0269612 159.500574,53.1398687 L204.621862,84.343594 L162.077245,58.2384716 C161.982577,58.1800119 161.877583,58.1525015 161.773736,58.1525015 C161.576369,58.1525015 161.383592,58.2516537 161.27286,58.4310448 C161.215486,58.5273313 161.185077,58.6339343 161.185077,58.7376716 C161.186225,58.9336836 161.286629,59.1262567 161.466784,59.2362985 L214.092604,91.5261134 L127.535167,51.9511881 C127.455417,51.9133612 127.372225,51.8961672 127.29018,51.8961672 C127.068716,51.8961672 126.858153,52.0245493 126.759469,52.2389015 C126.723897,52.317994 126.704964,52.4028179 126.704964,52.4824836 C126.704964,52.7054328 126.833482,52.9157731 127.049782,53.0154985 L206.590367,89.382591 L200.596495,87.1192836 C200.537399,87.0963582 200.477156,87.0866149 200.418061,87.0866149 C200.369293,87.0866149 200.321673,87.0929194 200.274626,87.103809 L170.441815,75.9718209 C170.374687,75.9471761 170.305838,75.9351403 170.238137,75.9351403 C170.000608,75.9351403 169.777423,76.0795701 169.688493,76.3157015 C169.664396,76.3821851 169.653495,76.4515343 169.651773,76.5197373 C169.651773,76.7570149 169.798077,76.9805373 170.032737,77.0682269 L215.827597,94.1545075 L159.248701,83.2500537 C159.211982,83.242603 159.174689,83.2391642 159.137969,83.2391642 C158.863147,83.2391642 158.617013,83.434603 158.563081,83.7137194 L158.55218,83.8249075 C158.55218,84.1011582 158.745531,84.3447403 159.026664,84.4003343 L208.113076,93.8593433 L129.888653,85.188394 C129.868572,85.1861015 129.849065,85.1855284 129.829558,85.1855284 C129.531212,85.1855284 129.275324,85.4044657 129.242047,85.7065075 L129.237457,85.7718448 C129.237457,86.0658627 129.461216,86.3203343 129.758414,86.3524299 L177.971018,91.6951881 L171.830842,91.1782209 C171.813629,91.1765015 171.796417,91.1759284 171.779205,91.1759284 C171.477417,91.1759284 171.225545,91.404609 171.198005,91.7100896 L171.196858,91.7593791 C171.195137,92.0614209 171.427502,92.3164657 171.732732,92.3428299 L205.493948,95.1958925 L205.508291,95.2228299 L152.596174,94.4680119 C152.280043,94.4714507 152.006942,94.7213373 152.0035,95.0445851 L152.0035,95.0514627 C152.000058,95.3712716 152.257667,95.633194 152.58011,95.637206 L179.501759,96.0217791 L133.440683,96.6138269 C133.118241,96.6184119 132.861205,96.8803343 132.861205,97.1995701 L132.861205,97.2070209 C132.864647,97.5285493 133.131437,97.7692657 133.454453,97.7858866 L189.42002,97.0631642 C189.350597,97.1611701 189.307567,97.2786627 189.307567,97.4099104 L189.308714,97.433409 C189.32191,97.7486328 189.583536,97.9956537 189.897372,97.9956537 C189.904257,97.9956537 189.911142,97.9956537 189.918601,97.9950806 L203.243162,97.4402866 L196.584897,98.120597 C196.429987,98.137791 196.297453,98.2134448 196.202786,98.3223403 L162.290676,101.99957 C161.99061,102.029946 161.766851,102.283845 161.767998,102.580155 L161.772014,102.6432 C161.804144,102.942949 162.059459,103.164752 162.353788,103.164752 C162.375016,103.164752 162.396245,103.163606 162.417473,103.161313 L216.058815,97.3462925 L142.571198,118.802722 C142.313588,118.880096 142.148924,119.110496 142.148924,119.364967 C142.148924,119.419415 142.156383,119.474436 142.172448,119.52831 C142.245887,119.784501 142.479973,119.949564 142.733567,119.949564 C142.788072,119.949564 142.843725,119.94154 142.89823,119.925493 L171.64954,111.53366 L136.688058,122.580824 C136.439628,122.659343 136.27898,122.888597 136.27898,123.137337 C136.27898,123.19637 136.289308,123.257122 136.307094,123.315009 C136.385122,123.564322 136.615192,123.724227 136.86477,123.724227 C136.923291,123.724227 136.983534,123.71563 137.042056,123.696716 L200.334869,103.695475 L180.80702,110.951355 C180.569491,111.038472 180.424908,111.263713 180.424908,111.499845 C180.424908,111.566901 180.435809,111.636251 180.459906,111.702734 C180.547115,111.939439 180.772022,112.085015 181.010124,112.085015 C181.077826,112.085015 181.146674,112.072979 181.213802,112.048334 L214.929119,99.5196179 L196.009435,109.735737 C195.812642,109.842913 195.704205,110.044657 195.704205,110.251558 C195.703058,110.345552 195.726007,110.441839 195.771906,110.529528 C195.879196,110.72554 196.081153,110.836728 196.288847,110.836728 C196.382941,110.836728 196.477608,110.814376 196.565964,110.766806 L213.294531,101.731916 L161.234419,137.547081 C161.070903,137.660561 160.981973,137.84511 160.981973,138.02966 C160.981973,138.143713 161.016397,138.258913 161.08582,138.359785 C161.199421,138.524848 161.383018,138.61311 161.569484,138.61311 C161.683085,138.61311 161.798406,138.579869 161.899385,138.511093 L189.309862,119.653254 C189.289781,119.715152 189.278306,119.77877 189.278306,119.844107 C189.278306,119.965039 189.315599,120.084824 189.389038,120.187415 C189.503786,120.3456 189.681646,120.429278 189.862374,120.429278 C189.982286,120.429278 190.103345,120.392597 190.207766,120.31637 L197.630254,114.919737 L158.250392,145.871284 C158.104662,145.98763 158.027781,146.157851 158.027781,146.332084 C158.027781,146.458746 158.06909,146.586555 158.152856,146.692585 C158.268178,146.839881 158.4403,146.916107 158.61357,146.916107 C158.740367,146.916107 158.867737,146.875415 158.975027,146.791164 L194.773023,118.656 L179.679619,131.335451 C179.543068,131.451797 179.471924,131.619152 179.471924,131.784788 C179.471924,131.916609 179.516103,132.049576 179.608475,132.160764 C179.724944,132.29717 179.890755,132.367666 180.057714,132.367666 C180.190248,132.367666 180.32393,132.322961 180.432367,132.23126 L189.988023,124.202794 L169.298349,142.571176 C169.167536,142.686376 169.100982,142.846281 169.100982,143.007904 C169.100982,143.147749 169.151471,143.284155 169.249007,143.395916 C169.365477,143.526018 169.52555,143.592501 169.686772,143.592501 C169.825043,143.592501 169.964462,143.543785 170.076915,143.44406 L203.142757,114.090412 L203.243162,114.235415 C203.359058,114.358066 203.514541,114.420537 203.670599,114.420537 C203.814608,114.420537 203.959764,114.367236 204.073939,114.26006 L208.870987,109.748919 L207.96964,110.706054 C207.747029,110.941039 207.760225,111.31071 207.994311,111.53366 C208.107338,111.639116 208.251921,111.691272 208.396504,111.691272 C208.551987,111.691272 208.707471,111.629946 208.822793,111.509015 L217.6607,102.129099 L178.66295,158.402866 C178.593527,158.504884 178.559103,158.62123 178.559103,158.737576 C178.559103,158.922125 178.646311,159.103809 178.812696,159.219009 C178.914822,159.288358 179.030144,159.322173 179.144892,159.322173 C179.33021,159.322173 179.512086,159.23391 179.626261,159.069994 L210.882523,113.966042 L184.732556,156.493182 C184.67346,156.589469 184.644773,156.694925 184.644773,156.798663 C184.645921,156.995821 184.744604,157.186101 184.925333,157.297863 C185.020574,157.356896 185.126142,157.384406 185.230563,157.384406 C185.427356,157.384406 185.618986,157.285827 185.729718,157.106436 L218.047975,104.542567 L178.438043,190.999881 C178.399603,191.079546 178.382964,191.162078 178.382964,191.244036 C178.382964,191.464119 178.508613,191.677325 178.724914,191.774185 C178.803516,191.812585 178.88843,191.82806 178.969327,191.82806 C179.190791,191.82806 179.403649,191.702543 179.501759,191.487045 L215.904478,112.036872 L213.64107,118.015809 C213.616399,118.084012 213.602629,118.153361 213.602629,118.222137 L213.633038,118.32129 L202.483529,148.140322 C202.45771,148.206233 202.447383,148.274436 202.445662,148.342639 C202.445662,148.579916 202.590818,148.804012 202.826626,148.893421 C202.89318,148.918066 202.961455,148.929528 203.028583,148.929528 C203.266685,148.929528 203.491018,148.783952 203.579374,148.547821 L220.68202,102.80769 L209.771761,159.318734 L209.76086,159.431642 C209.76086,159.704454 209.953063,159.949755 210.23477,160.004776 C210.272063,160.011654 210.309356,160.015093 210.345502,160.015093 C210.622619,160.015093 210.867032,159.820227 210.92039,159.54111 L220.387117,110.520358 L211.709284,188.65003 L211.705842,188.715367 C211.705842,189.009385 211.927306,189.265003 212.226799,189.295952 C212.250322,189.298818 212.273272,189.299964 212.295647,189.299964 C212.589977,189.299964 212.841275,189.077015 212.873978,188.780131 L218.225261,140.612203 L217.704304,146.751045 L217.702009,146.800334 C217.702009,147.098937 217.9338,147.355701 218.237883,147.383212 C218.254522,147.384931 218.27116,147.385504 218.287225,147.385504 C218.59016,147.385504 218.846622,147.153958 218.871867,146.848478 L221.726802,113.121815 L221.754342,113.109206 L220.997577,165.966519 L220.997577,165.972251 C220.997577,166.292633 221.255187,166.555701 221.575335,166.557421 C221.915563,166.544239 222.166862,166.305815 222.170304,165.98314 L222.55471,139.088812 L223.147959,185.100609 C223.153696,185.422137 223.414748,185.679475 223.734322,185.679475 L223.742354,185.679475 C224.062502,185.676036 224.319538,185.414113 224.319538,185.094878 L224.319538,185.087427 L223.598919,129.178746 C223.695308,129.252107 223.816367,129.293946 223.948327,129.293946 L223.968408,129.293946 C224.283966,129.279045 224.529527,129.020561 224.529527,128.709349 L224.529527,128.682412 L223.975867,115.377672 L224.655176,122.022018 C224.671241,122.17791 224.749844,122.312024 224.860002,122.406018 L228.538255,156.281696 C228.571532,156.582018 228.82111,156.80554 229.120029,156.80554 C229.140683,156.80554 229.161912,156.804394 229.182567,156.802101 C229.483781,156.765994 229.706392,156.513242 229.706392,156.217504 L229.702376,156.156179 L223.882921,102.569266 L245.359194,175.980896 C245.436076,176.23594 245.669588,176.401576 245.922034,176.401576 C245.97654,176.401576 246.030471,176.394125 246.087845,176.379224 C246.342013,176.30529 246.508397,176.070304 246.508397,175.816406 C246.508397,175.762531 246.500365,175.708657 246.483727,175.651916 L238.062356,146.866245 L249.141295,181.856669 C249.221619,182.105409 249.45341,182.265887 249.70184,182.265887 C249.759788,182.265887 249.818309,182.25729 249.876257,182.239522 C250.125261,182.15871 250.285335,181.92831 250.285335,181.67957 C250.285335,181.621684 250.277302,181.562078 250.257221,181.503045 L230.241692,118.293779 L237.50009,137.787797 C237.587299,138.023355 237.812779,138.167212 238.050881,138.167212 C238.118583,138.167212 238.186858,138.155749 238.253412,138.131678 C238.488072,138.043415 238.636097,137.820466 238.636097,137.583188 C238.636097,137.516131 238.622901,137.445636 238.597083,137.379152 L226.055104,103.696621 L236.286054,122.597445 C236.391049,122.792884 236.593005,122.904645 236.801847,122.904645 C236.895367,122.904645 236.990034,122.882293 237.07839,122.834722 C237.273462,122.728693 237.384194,122.529242 237.384194,122.320048 C237.385342,122.226054 237.364113,122.130913 237.315919,122.041504 L228.27204,105.334066 L264.123394,157.336263 C264.236995,157.500179 264.420592,157.588442 264.607058,157.588442 C264.721806,157.588442 264.837701,157.5552 264.939254,157.485851 C265.10277,157.371797 265.192273,157.188394 265.192273,157.003845 C265.192273,156.889218 265.157849,156.772872 265.086705,156.672 L246.2112,129.290507 C246.273164,129.311713 246.33857,129.323176 246.403977,129.323176 C246.523315,129.323176 246.643227,129.286496 246.747074,129.209696 C246.903705,129.095642 246.986897,128.91797 246.986897,128.736287 C246.988619,128.617648 246.951899,128.496716 246.875592,128.394125 L241.491032,121.004704 L272.456408,160.318281 C272.572304,160.465576 272.743279,160.541803 272.916549,160.541803 C273.043345,160.541803 273.17129,160.50111 273.278579,160.41686 C273.425457,160.29994 273.501764,160.129146 273.501764,159.956633 C273.501764,159.828824 273.460455,159.701588 273.377263,159.593839 L245.20371,123.823379 L257.90691,138.910567 C258.022232,139.047546 258.188043,139.119188 258.355002,139.119188 C258.487536,139.119188 258.621218,139.07391 258.731376,138.981063 C258.869074,138.864716 258.939644,138.701373 258.939644,138.532299 C258.939644,138.401051 258.894892,138.266937 258.801946,138.158615 L250.762687,128.61077 L269.150513,149.28086 C269.266982,149.411534 269.428203,149.478591 269.589998,149.478591 C269.72827,149.478591 269.866541,149.429875 269.977847,149.330149 C270.108086,149.214949 270.176362,149.053325 270.176362,148.893421 C270.176362,148.754722 270.125872,148.614878 270.026615,148.50369 L240.643043,115.470519 L240.787626,115.370794 C240.910406,115.254448 240.971223,115.099701 240.971223,114.944382 C240.971223,114.799952 240.919586,114.657815 240.813444,114.542615 L236.296381,109.750066 L237.254529,110.649313 C237.367556,110.755916 237.512712,110.809218 237.657295,110.809218 C237.812205,110.809218 237.967115,110.747893 238.08129,110.625815 C238.187432,110.511188 238.239642,110.369051 238.239642,110.224621 C238.239642,110.069301 238.179973,109.913409 238.056619,109.799355 L228.669642,100.969648 L285.002403,139.927307 C285.103955,139.996657 285.219277,140.029899 285.333451,140.029899 C285.519917,140.029899 285.702941,139.941063 285.815968,139.777146 C285.887112,139.676275 285.922683,139.562221 285.922683,139.444728 C285.922683,139.260752 285.833754,139.077349 285.667942,138.965588 L240.513951,107.73951 L283.08955,133.864119 C283.185365,133.923152 283.290933,133.950663 283.395354,133.950663 C283.592147,133.950663 283.784351,133.85151 283.895083,133.672119 C283.954752,133.575833 283.982291,133.470376 283.982291,133.366066 C283.982291,133.169481 283.88246,132.9792 283.704027,132.866866 L231.098288,100.58794 L317.632775,140.154269 C317.710804,140.190376 317.792849,140.206997 317.87432,140.206997 C318.096358,140.206997 318.310363,140.079188 318.409621,139.86197 C318.444045,139.786316 318.461831,139.700919 318.461831,139.621827 C318.461831,139.398878 318.333887,139.188537 318.120455,139.091104 L238.575281,102.719427 L244.570874,104.985027 C244.630543,105.006806 244.689638,105.015976 244.748734,105.015976 C244.798076,105.015976 244.846844,105.009672 244.895612,104.999355 L274.726701,116.131916 C274.793829,116.157134 274.863252,116.16917 274.930953,116.16917 C275.168482,116.16917 275.391667,116.023594 275.480023,115.788036 C275.505842,115.719833 275.517317,115.65163 275.517317,115.583427 C275.517317,115.347296 275.37216,115.1232 275.136353,115.036084 L229.35182,97.9515224 L285.920388,108.851391 C285.958255,108.858842 285.996122,108.862281 286.033415,108.862281 C286.309385,108.862281 286.55093,108.667988 286.606009,108.388872 L286.615763,108.27711 C286.615763,108.001433 286.421264,107.756704 286.140705,107.70283 L237.049703,98.2426746 L315.280437,106.913624 C315.30396,106.91649 315.327484,106.918209 315.350433,106.918209 C315.642468,106.918209 315.893192,106.69526 315.927617,106.396657 L315.930486,106.331319 C315.930486,106.037301 315.709022,105.785122 315.408381,105.750734 L267.203236,100.407403 L273.335953,100.927236 C273.352592,100.928382 273.36923,100.928955 273.385295,100.928955 C273.687083,100.928955 273.943545,100.697982 273.969363,100.393075 L273.972232,100.343785 C273.972232,100.04289 273.740441,99.7861254 273.434637,99.7603343 L239.674568,96.9072716 L239.659077,96.8803343 L292.573489,97.6345791 C292.902817,97.6259821 293.162721,97.3818269 293.168459,97.0574328 L293.168459,97.0505552 C293.168459,96.7313194 292.911423,96.469397 292.58898,96.4665313 L265.672495,96.0825313 L311.728406,95.4887642 C312.049128,95.4853254 312.306737,95.2228299 312.306737,94.9047403 L312.306737,94.8961433 C312.303295,94.5820657 312.073799,94.3178507 311.74275,94.3178507 C311.732996,94.3178507 311.723243,94.3184239 311.713489,94.3184239 L255.748496,95.04 C255.81964,94.9425672 255.860376,94.8250746 255.860376,94.6955463 L255.860376,94.6697552 C255.84718,94.3510925 255.582685,94.109803 255.265406,94.109803 L255.250489,94.109803 L241.926502,94.6617313 L248.582471,93.9825672 C248.737955,93.9665194 248.871637,93.8891463 248.96573,93.7796776 L282.876692,90.103594 C283.176759,90.0703522 283.400518,89.8181731 283.400518,89.5224358 L283.398223,89.4599642 C283.364372,89.1579224 283.105041,88.9378388 282.808991,88.9378388 C282.789484,88.9378388 282.77055,88.9384119 282.751043,88.9407045 L229.109701,94.7557254 L302.59904,73.3004418 C302.854928,73.2253612 303.020165,72.9909493 303.020165,72.7359045 C303.020165,72.6837493 303.012707,72.6298746 302.997216,72.5737075 C302.922056,72.3192358 302.689691,72.1536 302.436097,72.1536 C302.382165,72.1536 302.326513,72.1616239 302.272007,72.1776716 L273.425457,80.5998806 L308.479885,69.5223403 C308.728888,69.4426746 308.888962,69.2145672 308.888962,68.9658269 C308.888962,68.906794 308.88093,68.8466149 308.861996,68.7881552 C308.782246,68.5382687 308.552176,68.3800836 308.302599,68.3800836 C308.244077,68.3800836 308.184408,68.3892537 308.125313,68.4070209 L244.862908,88.3968 L264.363791,81.151809 C264.598451,81.0641194 264.744182,80.840597 264.744182,80.6033194 C264.744182,80.5362627 264.733281,80.4669134 264.707462,80.3987104 C264.620254,80.1637254 264.397068,80.0187224 264.15954,80.0187224 C264.091264,80.0187224 264.021842,80.0307582 263.954714,80.0559761 L230.232513,92.5864119 L249.158507,82.3674269 C249.354153,82.2608239 249.466606,82.0608 249.466606,81.851606 C249.466606,81.7593313 249.445378,81.6618985 249.396036,81.5736358 C249.290468,81.378197 249.087363,81.267009 248.879095,81.267009 C248.785576,81.267009 248.690908,81.2893612 248.6037,81.3363582 L231.878576,90.367809 L283.93295,54.5555104 C284.098187,54.442603 284.186543,54.2586269 284.186543,54.0735045 C284.186543,53.9588776 284.154414,53.8442507 284.08327,53.742806 C283.969095,53.5777433 283.786072,53.4889075 283.60018,53.4889075 C283.486005,53.4889075 283.37011,53.5227224 283.269131,53.5932179 L255.858081,72.4504836 C255.879309,72.3880119 255.890784,72.3232478 255.890784,72.2590567 C255.890784,72.1404179 255.854065,72.017194 255.777757,71.9157493 C255.663009,71.756991 255.484002,71.6733134 255.302126,71.6733134 C255.183362,71.6733134 255.06345,71.7094209 254.960176,71.7839284 L247.578424,77.1519045 L286.918698,46.2330269 C287.065576,46.1155343 287.142457,45.9441672 287.142457,45.7728 C287.142457,45.6461373 287.101147,45.5189015 287.016808,45.4111522 C286.899764,45.2644299 286.727642,45.1876299 286.554946,45.1876299 C286.428723,45.1876299 286.301926,45.2283224 286.19521,45.3131463 L250.363937,73.4746746 L265.48775,60.7671403 C265.626595,60.650794 265.698313,60.4851582 265.698313,60.3183761 C265.698313,60.185409 265.65184,60.0512955 265.558894,59.9424 C265.443572,59.8054209 265.278335,59.7349254 265.11195,59.7349254 C264.978842,59.7349254 264.84516,59.7796299 264.735002,59.8719045 L255.17246,67.9049552 L275.871888,49.5331343 C276.001554,49.4173612 276.068108,49.2563104 276.068108,49.0952597 C276.068108,48.9559881 276.017619,48.8178627 275.919509,48.7066746 C275.804187,48.5771463 275.642966,48.5106627 275.481745,48.5106627 C275.342899,48.5106627 275.204054,48.5593791 275.092748,48.6585313 L242.024612,78.011606 L241.923633,77.8683224 C241.807737,77.7456716 241.652827,77.6837731 241.49677,77.6837731 C241.353335,77.6837731 241.209326,77.7365015 241.095725,77.8425313 L236.29925,82.3536716 L237.198876,81.3982567 C237.306739,81.2847761 237.358376,81.1397731 237.358376,80.9970627 C237.358376,80.840597 237.295838,80.6847045 237.172484,80.5706507 C237.060031,80.4646209 236.915448,80.4118925 236.771439,80.4118925 C236.615955,80.4118925 236.460471,80.4732179 236.345723,80.5952955 L227.511833,89.9706269 L266.50614,33.6991522 C266.57671,33.5982806 266.609987,33.4807881 266.609987,33.3655881 C266.609987,33.1810388 266.522779,32.998209 266.356968,32.8864478 C266.255415,32.8153791 266.138946,32.7815642 266.024198,32.7815642 C265.838879,32.7815642 265.65643,32.8698269 265.542255,33.0331701 L234.29173,78.131391 L260.437108,35.6099821 C260.495629,35.5142687 260.524317,35.4076657 260.522595,35.3033552 C260.522595,35.1084896 260.424486,34.9159164 260.244331,34.8058746 C260.147942,34.7474149 260.0418,34.7193313 259.936806,34.7193313 C259.740586,34.7193313 259.548957,34.8173373 259.437651,34.9967284 L227.119394,87.5600239 L266.732768,1.10328358 C266.76834,1.02419104 266.784405,0.941086567 266.784405,0.860274627 C266.784405,0.638471642 266.658755,0.426985075 266.443603,0.328979104 C266.363853,0.292871642 266.28066,0.275677612 266.198615,0.275677612" id="Fill-1" fill="#F5F3F2" sketch:type="MSShapeGroup"></path>
            <path d="M211.700104,51.4949731 C180.208608,51.4949731 154.588777,77.0894328 154.588777,108.547057 C154.588777,109.772991 154.631808,110.989182 154.708115,112.197349 C155.231941,112.236896 155.677737,112.287331 156.048374,112.350376 C157.474121,112.61631 158.751268,113.083988 159.893013,113.730484 C159.723185,112.025409 159.634255,110.29569 159.634255,108.547057 C159.634255,79.8685612 182.991252,56.5368358 211.700104,56.5368358 C240.410104,56.5368358 263.765953,79.8685612 263.765953,108.547057 C263.765953,111.955487 263.43261,115.286543 262.80379,118.515009 C261.071092,117.17846 259.451995,115.963988 258.312545,115.18166 C253.874658,112.126854 251.780504,110.810364 250.081656,108.80554 C249.198669,107.760143 245.210595,104.086925 243.966725,102.936645 C241.02745,100.20394 239.453104,94.4703045 237.506401,92.5686448 C237.104782,92.1708896 233.594635,89.2868776 232.017995,87.0241433 L229.584185,82.9743761 C227.676496,80.3356657 227.208324,78.3216716 226.475083,76.6607284 C225.729219,74.9642507 226.116495,74.8931821 224.372896,72.8344836 L221.940808,70.7224836 C218.391646,66.4606567 216.135696,63.7743761 214.069081,63.7732299 C213.328381,63.7709373 212.15336,65.7642985 212.05984,66.4984836 C211.676007,69.5630328 213.632464,72.3209552 214.161453,72.8522507 C215.66236,74.3429731 216.980243,74.7567761 218.007813,78.1394149 C218.52418,79.8410507 220.356135,79.9917851 220.72046,82.8563104 C220.842094,83.8025552 220.948809,85.1809433 221.227647,86.3667582 C220.828897,86.0962388 220.408919,85.8285851 219.976892,85.5712478 C218.985468,84.9820657 218.180509,84.232406 217.397353,83.7601433 C217.192527,83.6334806 216.956146,83.5039522 216.69911,83.3658269 C215.33877,82.6471164 212.912993,82.1055045 210.556065,81.4217552 C210.241655,81.3340657 208.504941,81.0910567 208.183072,80.9987821 C206.795766,80.6067582 206.615038,80.3253493 205.283959,79.9224358 C201.659637,78.8208716 200.395685,78.5520716 199.293529,80.7225313 C198.193667,82.8958567 200.244218,84.8651463 202.866788,86.1546985 C205.488784,87.4448239 207.91284,87.1261612 207.91284,87.1261612 C208.479696,87.5302209 209.039094,87.9193791 209.583574,88.298794 C208.845743,88.913194 208.317901,90.2165015 208.343719,92.6993194 C208.343719,92.6993194 208.316754,93.7550328 208.758534,94.5992597 C208.97254,95.1609313 209.317358,95.7248955 209.734468,96.2871403 C209.039094,96.2728119 208.315032,96.2613493 207.590971,96.2378507 C207.312133,96.2240955 205.82557,96.3857194 205.54329,96.3776955 C204.315484,96.3398687 204.107216,96.1438567 202.921867,96.0865433 C199.700885,95.9306507 198.599302,95.9679045 198.142604,97.9922149 C197.684185,100.01366 199.78752,101.214949 202.222477,101.736501 C204.655138,102.258054 206.591514,101.4912 206.591514,101.4912 C209.934129,103.584287 212.992169,102.198448 212.992169,102.198448 C213.389198,103.261039 218.436971,105.727236 218.436971,105.727236 C218.436971,105.727236 219.457656,106.460275 218.192558,106.533063 C216.804678,106.617887 213.966381,105.461875 212.865946,105.426913 C211.413234,105.381063 207.258775,106.065385 207.258775,106.065385 C205.61845,106.34049 202.763514,107.632334 202.056092,108.283988 C201.462844,108.833624 201.768074,110.412036 203.150216,111.065409 C204.533505,111.715916 207.788338,110.528382 207.788338,110.528382 C208.766567,110.986316 211.982959,110.163296 211.982959,110.163296 C212.890617,111.977839 217.100728,113.382591 217.100728,113.382591 L218.769167,113.592931 C219.746248,116.667224 221.289038,116.887307 221.289038,116.887307 C222.515122,119.72203 225.193345,123.010675 226.919158,123.865791 C229.122897,124.959331 229.831468,124.411988 230.96977,125.253922 C232.804594,126.612824 234.548192,126.797373 235.146604,127.603773 C236.140324,128.948919 238.155302,128.953504 239.450809,130.487212 C243.666658,135.458579 250.359347,140.75434 250.359347,140.75434 L251.580842,141.943021 C244.667263,150.168072 235.257336,156.230687 224.527806,158.95766 L224.527806,164.146818 C249.864209,158.316896 268.813153,135.600716 268.813153,108.547057 C268.813153,77.0894328 243.192174,51.4949731 211.700104,51.4949731" id="Fill-2" fill="#E89C74" sketch:type="MSShapeGroup"></path>
            <path d="M264.732133,121.515367 C260.580543,118.155654 256.679678,115.13237 254.640029,113.730484 C250.033462,110.559331 248.212408,108.408931 246.448728,106.325015 C245.551971,105.268155 244.708572,104.268609 243.532977,103.181373 C240.294209,100.170125 235.654939,91.392 234.221734,90.6933493 C233.317518,90.2549015 232.880327,89.6296119 231.258935,87.300394 L228.62489,83.5761672 C226.624829,80.8073552 225.79979,78.9320597 225.068844,77.2785672 C224.336176,75.6199164 223.70334,74.1859343 222.101455,72.2997493 L220.838651,70.7906866 C218.215507,67.643606 215.739815,64.6707582 214.294561,64.6707582 C214.008838,64.6707582 213.771309,64.7836657 213.586565,65.0020299 C213.34961,65.2863045 213.244615,65.5975164 213.276745,65.9293612 C213.362806,66.7953672 214.362836,67.5977552 215.248119,68.3078687 C215.70539,68.6758209 216.137417,69.0231403 216.320441,69.290794 L216.891313,70.2404776 C217.661847,71.5798925 218.953912,73.8265791 221.018806,75.8468776 C222.635034,77.4275821 223.014851,79.441003 223.384914,81.3936716 C223.610968,82.5920955 223.846201,83.8306388 224.361995,84.9585672 C224.751565,85.8182687 224.777383,86.5455761 224.451498,87.4161672 C224.10209,88.3549612 223.962671,89.3671164 224.586901,90.2388537 C225.119333,90.9810627 225.679878,91.3736597 225.947241,92.3101612 C226.275995,93.4627343 226.459592,94.7379582 226.113626,95.9071522 C225.885851,96.6665552 224.74927,97.1594507 224.026356,97.1594507 C222.980426,97.1537194 221.936791,95.9381015 221.184617,95.3242746 C219.722725,94.1344478 218.209196,92.9039284 216.833939,92.3904 C215.832761,92.0121313 214.788552,91.0418149 213.870567,90.1866985 C212.723658,89.1195224 211.733955,88.196203 210.876786,88.3549612 C210.491806,88.426603 210.172806,88.7183284 209.930113,89.2169552 C209.435549,90.2291104 209.44186,91.3988776 209.944457,92.6053254 C210.883671,94.8623284 213.347315,96.8109851 216.707142,97.9584 C222.168583,99.8233791 231.783335,104.923128 231.493595,108.459367 C231.333522,110.449863 232.686403,112.788251 234.784574,114.148299 C236.865532,115.49631 237.216088,115.092251 239.10427,113.608979 C240.874261,112.217409 244.632264,113.998137 244.558252,115.760525 C244.472191,117.830113 255.35491,129.343809 259.449126,134.988609 C261.776219,130.805301 263.567439,126.282699 264.732133,121.515367" id="Fill-3" fill="#FFFFFF" sketch:type="MSShapeGroup"></path>
            <path d="M22.5721187,114.665266 L26.9704173,114.665266 L26.9704173,135.431642 C26.9704173,137.809003 26.8786187,139.543307 26.6933004,140.63914 C26.1700486,143.636633 24.6180791,145.969863 22.0396871,147.636537 C19.7952122,149.102615 16.9804388,149.836227 13.5902032,149.836227 C10.2016888,149.836227 7.38519424,149.102615 5.14244065,147.636537 C2.56404856,145.969863 1.01093165,143.636633 0.48997482,140.63914 C0.302361511,139.543307 0.21056295,137.809003 0.21056295,135.431642 L0.21056295,114.665266 L4.61000899,114.665266 L4.61000899,135.306125 C4.61000899,137.091439 4.65361331,138.321958 4.73852698,138.998257 C4.9892518,141.168716 5.80224281,142.835391 7.16717266,143.999427 C8.70020863,145.297003 10.8425576,145.945218 13.5902032,145.945218 C17.9408813,145.945218 20.7240989,144.390304 21.9387086,141.271307 C22.3592608,140.177767 22.5721187,138.186125 22.5721187,135.306125 L22.5721187,114.665266 L22.5721187,114.665266 Z M38.6053112,134.80234 L38.6053112,149.155343 L34.2064388,149.155343 L34.2064388,114.665266 L46.875214,114.665266 C50.5035522,114.665266 53.082518,115.032645 54.6172752,115.777146 C56.4216906,116.66837 57.7694083,118.007785 58.6615755,119.794818 C59.4068651,121.312478 59.7769281,123.003797 59.7769281,124.873361 C59.7769281,127.601481 59.0178687,129.813206 57.5008975,131.520573 C55.8479496,133.351737 53.5283147,134.397134 50.5465827,134.651606 C49.3296781,134.750758 48.1500665,134.80234 47.0043058,134.80234 L38.6053112,134.80234 L38.6053112,134.80234 Z M38.6053112,131.08843 L46.6491601,131.08843 C49.0428076,131.08843 50.8053399,130.851152 51.935036,130.380609 C54.2288525,129.422328 55.3763345,127.536143 55.3763345,124.718615 C55.3763345,122.058125 54.2873741,120.223522 52.1128957,119.21366 C51.135241,118.773493 49.3451691,118.556275 46.751286,118.556275 L38.6053112,118.556275 L38.6053112,131.08843 L38.6053112,131.08843 Z M65.2418112,114.665266 L71.8163094,142.762603 L79.6077122,114.665266 L84.9698957,114.665266 L92.0762518,142.762603 L99.5136565,114.665266 L104.344556,114.665266 L94.2254856,149.155343 L90.0796331,149.155343 L82.2365935,118.834245 L73.815223,149.155343 L69.4639712,149.155343 L60.3076385,114.665266 L65.2418112,114.665266 L65.2418112,114.665266 Z M110.895531,138.693349 L107.280388,149.155343 L102.345642,149.155343 L115.071218,114.665266 L120.1035,114.665266 L132.826781,149.155343 L127.892608,149.155343 L124.275171,138.693349 L110.895531,138.693349 L110.895531,138.693349 Z M112.084322,135.08031 L123.087527,135.08031 L117.573302,119.086997 L112.084322,135.08031 L112.084322,135.08031 Z M140.160912,134.546149 L140.160912,149.155343 L135.759171,149.155343 L135.759171,114.665266 L150.858887,114.665266 C153.13836,114.665266 154.721885,114.741493 155.615773,114.8928 C158.043272,115.346149 159.931453,116.502734 161.282613,118.352812 C162.428948,119.938101 163.002689,121.837469 163.002689,124.064096 C163.002689,126.624287 162.167896,128.703045 160.499457,130.304955 C159.552784,131.196752 158.237196,131.989397 156.551545,132.677731 C157.781072,133.133373 158.751268,133.714531 159.459838,134.425218 C160.234962,135.229899 160.758214,136.124561 161.029594,137.100609 C161.365806,138.230257 161.617678,139.678567 161.786932,141.446113 C162.073802,144.648788 162.329691,146.592287 162.547712,147.282913 C162.69918,147.772943 163.03654,148.396513 163.558644,149.155343 L158.423088,149.155343 C158.104662,148.312263 157.832709,146.608907 157.614113,144.048716 C157.378879,141.508585 157.159137,139.839618 156.956032,139.046973 C156.381144,136.741254 154.949086,135.317588 152.656417,134.777696 C151.829656,134.625815 150.499151,134.546149 148.65859,134.546149 L140.160912,134.546149 L140.160912,134.546149 Z M140.160912,131.08843 L147.545532,131.08843 C151.002322,131.08843 153.314498,130.887833 154.476324,130.481481 C157.225117,129.519761 158.602095,127.492585 158.602095,124.393075 C158.602095,122.389397 158.035239,120.872884 156.903822,119.845827 C156.045505,119.086997 154.485504,118.664024 152.224964,118.580919 C151.990878,118.562006 151.334518,118.556275 150.254164,118.556275 L140.160912,118.556275 L140.160912,131.08843 L140.160912,131.08843 Z M169.072869,149.155343 L169.072869,114.665266 L180.607358,114.665266 C183.20411,114.665266 185.141059,114.815427 186.424518,115.119761 C189.865817,115.927307 192.545187,117.881696 194.467793,120.98006 C196.088038,123.559164 196.896439,127.17163 196.896439,131.820322 C196.896439,143.375857 191.686871,149.155343 181.265439,149.155343 L169.072869,149.155343 L169.072869,149.155343 Z M173.472888,145.263188 L180.959061,145.263188 C183.89432,145.263188 186.121583,144.825313 187.636833,143.947845 C190.877322,142.095475 192.496993,137.986101 192.496993,131.61686 C192.496993,125.756561 190.908878,121.867845 187.742401,119.94326 C186.205923,119.018794 183.768671,118.556275 180.430072,118.556275 L173.472888,118.556275 L173.472888,145.263188 L173.472888,145.263188 Z" id="Fill-4" fill="#F5CA9C" sketch:type="MSShapeGroup"></path>
            <path d="M206.966741,148.187319 L206.966741,157.217624 L191.808504,157.217624 L191.808504,148.187319 L176.8287,148.187319 L176.8287,154.737099 C175.407543,152.728263 172.903164,151.051272 169.289169,149.719881 C165.370518,148.291057 160.906239,147.575785 155.895185,147.575785 C149.680423,147.575785 144.426103,148.699701 140.136241,150.944096 C137.746036,152.204418 135.903754,153.719212 134.603656,155.485612 C133.327656,157.222782 132.682772,159.07286 132.660969,161.035845 L124.507536,148.187319 L110.857664,148.187319 L98.5859173,167.528884 L98.5859173,167.508251 L74.5054335,167.508251 L74.5054335,164.007546 L94.7355414,164.007546 L94.7355414,158.267606 L74.5054335,158.267606 L74.5054335,154.979534 L97.9852104,154.979534 L97.9852104,148.187319 L61.5698687,148.187319 L61.5698687,153.170722 C60.5761493,151.479403 58.5950216,150.19329 55.6161583,149.31754 C53.0727644,148.565588 49.5465522,148.187319 45.0363741,148.187319 L25.2623903,148.187319 L25.2623903,174.298173 L37.5834784,174.298173 L37.5834784,165.306269 L42.6920683,165.306269 C43.8561888,165.306269 44.7472086,165.363009 45.3662752,165.478782 C46.4104838,165.658746 47.2728165,166.034722 47.9532734,166.60671 C48.8747014,167.372418 49.4054119,168.825313 49.5465522,170.969409 C49.6263022,172.449242 49.8156367,173.555964 50.1174245,174.298173 L107.809378,174.298173 L109.995905,170.586555 L125.07095,170.586555 L127.158793,174.298173 L141.076603,174.298173 L138.745493,170.624382 C139.416196,171.046782 140.131077,171.444537 140.900464,171.81077 C145.214996,173.863737 150.491692,174.890794 156.731126,174.890794 C163.899446,174.890794 169.546205,173.532466 173.674272,170.816955 C174.979532,169.960693 176.030052,168.999546 176.8287,167.934663 L176.8287,174.298173 L191.808504,174.298173 L191.808504,164.007546 L206.966741,164.007546 L206.966741,174.298173 L221.945971,174.298173 L221.945971,148.187319 L206.966741,148.187319 L206.966741,148.187319 Z M47.6818939,159.437373 C47.1224964,159.589254 46.097795,159.664334 44.6192644,159.664334 L37.5834784,159.664334 L37.5834784,154.595534 L44.6485252,154.595534 C46.0077176,154.595534 46.9607014,154.653994 47.5017392,154.766901 C49.0233004,155.099319 49.7858022,155.858149 49.7858022,157.043964 C49.7858022,158.242961 49.0864119,159.038472 47.6818939,159.437373 L47.6818939,159.437373 Z M60.4872194,165.345242 C59.3632608,163.8912 57.6821996,162.923176 55.4365773,162.438304 C58.5146978,161.608979 60.5560683,160.36929 61.5698687,158.723821 L61.5698687,168.17366 C61.3443885,166.994722 60.9846529,166.049051 60.4872194,165.345242 L60.4872194,165.345242 Z M113.143448,165.192215 L117.748867,157.504191 L121.991682,165.192215 L113.143448,165.192215 L113.143448,165.192215 Z M164.106567,164.386961 C163.94305,165.179606 163.607986,165.843296 163.096209,166.382042 C161.777178,167.744382 159.617617,168.424693 156.626705,168.424693 C153.959957,168.424693 151.823919,167.922054 150.227198,166.914484 C148.184106,165.626078 147.163421,163.789182 147.163421,161.404943 C147.163421,158.99606 148.219104,157.043964 150.331619,155.552669 C151.742448,154.557707 153.704068,154.0608 156.210169,154.0608 C158.761595,154.0608 160.777721,154.519881 162.263137,155.438615 C163.237349,156.038687 163.840351,156.852537 164.072142,157.887045 L176.8287,157.887045 L176.8287,164.386961 L164.106567,164.386961 L164.106567,164.386961 Z" id="Fill-5" fill="#E89C74" sketch:type="MSShapeGroup"></path>
        </g>
    </g>
</svg>